{"title":"Dragon Blade 2015 1080p BluRay Eng DD 5.1 AC3 x264 ~Invincible","uid":11998005,"size":3559188052,"categoryP":"video","categoryS":"hd___movies","magnet":"?xt=urn:btih:bfd870075991a0518194472d50d3dd65947e75c9&amp;dn=Dragon+Blade+2015+1080p+BluRay+Eng+DD+5.1+AC3+x264+%7EInvincible&amp;tr=udp%3A%2F%2Ftracker.openbittorrent.com%3A80&amp;tr=udp%3A%2F%2Fopen.demonii.com%3A1337&amp;tr=udp%3A%2F%2Ftracker.coppersurfer.tk%3A6969&amp;tr=udp%3A%2F%2Fexodus.desync.com%3A6969","seeders":14,"leechers":7,"uploader":"makintos13","files":13,"time":1433705526,"description":"screens:\n &lt;a href=&quot;\nhttp://imgmak.com/Uj&quot; rel=&quot;nofollow&quot; target=&quot;_NEW&quot;&gt;\nhttp://imgmak.com/Uj&lt;/a&gt;\n &lt;a href=&quot;\nhttp://imgmak.com/Uw&quot; rel=&quot;nofollow&quot; target=&quot;_NEW&quot;&gt;\nhttp://imgmak.com/Uw&lt;/a&gt;\n &lt;a href=&quot;\nhttp://imgmak.com/UJ&quot; rel=&quot;nofollow&quot; target=&quot;_NEW&quot;&gt;\nhttp://imgmak.com/UJ&lt;/a&gt;\n &lt;a href=&quot;\nhttp://imgmak.com/UW&quot; rel=&quot;nofollow&quot; target=&quot;_NEW&quot;&gt;\nhttp://imgmak.com/UW&lt;/a&gt;\n &lt;a href=&quot;\nhttp://imgmak.com/Ud&quot; rel=&quot;nofollow&quot; target=&quot;_NEW&quot;&gt;\nhttp://imgmak.com/Ud&lt;/a&gt;\n\n:::::::::::::::::::::::::::::\n\n ***************************************************************\nDragon Blade 2015 1080p BluRay Eng DD 5.1 AC3 x264 ~Invincible\n***************************************************************\n------------------------------------------------\nGeneral Information\n------------------------------------------------\nGeneral\nComplete name               : Dragon Blade 2015 1080p BluRay Eng DD 5.1 AC3 x264 ~Invincible.mkv\nFormat                      : Matroska\nFormat version              : Version 4 / Version 2\nFile size                   : 3.29 GiB\nDuration                    : 2h 7mn\nOverall bit rate            : 3 690 Kbps\nMovie name                  : Dragon Blade 2015 1080p BluRay Eng DD 5.1 AC3 x264 ~Invincible\n\nVideo\nID                          : 1\nFormat                      : AVC\nFormat/Info                 : Advanced Video Codec\nFormat profile              : &lt;a class=&quot;__cf_email__&quot; href=&quot;/cdn-cgi/l/email-protection&quot; data-cfemail=&quot;2860414f4068641c0619&quot;&gt;[email&amp;#160;protected]&lt;/a&gt;&lt;script data-cfhash='f9e31' type=&quot;text/javascript&quot;&gt;\n/* &lt;![CDATA[ */!function(){try{var t=&quot;currentScript&quot;in document?document.currentScript:function(){for(var t=document.getElementsByTagName(&quot;script&quot;),e=t.length;e--;)if(t[e].getAttribute(&quot;data-cfhash&quot;))return t[e]}();if(t&amp;&amp;t.previousSibling){var e,r,n,i,c=t.previousSibling,a=c.getAttribute(&quot;data-cfemail&quot;);if(a){for(e=&quot;&quot;,r=parseInt(a.substr(0,2),16),n=2;a.length-n;n+=2)i=parseInt(a.substr(n,2),16)^r,e+=String.fromCharCode(i);e=document.createTextNode(e),c.parentNode.replaceChild(e,c)}t.parentNode.removeChild(t);}}catch(u){}}()/* ]]&gt; */&lt;/script&gt;\nFormat settings, CABAC      : Yes\nFormat settings, ReFrames   : 5 frames\nCodec ID                    : V_MPEG4/ISO/AVC\nDuration                    : 2h 7mn\nBit rate                    : 3 299 Kbps\nWidth                       : 1 920 pixels\nHeight                      : 1 080 pixels\nDisplay aspect ratio        : 16:9\nFrame rate mode             : Constant\nFrame rate                  : 24.000 fps\nColor space                 : YUV\nChroma subsampling          : 4:2:0\nBit depth                   : 8 bits\nScan type                   : Progressive\nBits/(Pixel*Frame)          : 0.066\nStream size                 : 2.82 GiB (86%)\nTitle                       : Dragon Blade 2015\nLanguage                    : English\nDefault                     : Yes\nForced                      : No\n\nAudio\nID                          : 2\nFormat                      : AC-3\nFormat/Info                 : Audio Coding 3\nMode extension              : CM (complete main)\nFormat settings, Endianness : Big\nCodec ID                    : A_AC3\nDuration                    : 2h 7mn\nBit rate mode               : Constant\nBit rate                    : 448 Kbps\nChannel(s)                  : 6 channels\nChannel positions           : Front: L C R, Side: L R, LFE\nSampling rate               : 48.0 KHz\nBit depth                   : 16 bits\nCompression mode            : Lossy\nDelay relative to video     : 13s 97ms\nStream size                 : 409 MiB (12%)\nTitle                       : English DD 5.1 448Kbps\nLanguage                    : English\nDefault                     : Yes\nForced                      : No\n\nText\nID                          : 3\nFormat                      : PGS\nMuxing mode                 : zlib\nCodec ID                    : S_HDMV/PGS\nCodec ID/Info               : The same subtitle format used on BDs/HD-DVDs\nTitle                       : English Bluray PGS\nLanguage                    : English\nDefault                     : Yes\nForced                      : No","torrent":{"xt":"urn:btih:bfd870075991a0518194472d50d3dd65947e75c9","amp;dn":"Dragon+Blade+2015+1080p+BluRay+Eng+DD+5.1+AC3+x264+%7EInvincible","amp;tr":["udp%3A%2F%2Ftracker.openbittorrent.com%3A80","udp%3A%2F%2Fopen.demonii.com%3A1337","udp%3A%2F%2Ftracker.coppersurfer.tk%3A6969","udp%3A%2F%2Fexodus.desync.com%3A6969"],"infoHash":"bfd870075991a0518194472d50d3dd65947e75c9","infoHashBuffer":{"type":"Buffer","data":[191,216,112,7,89,145,160,81,129,148,71,45,80,211,221,101,148,126,117,201]},"announce":[],"urlList":[]}}